<svg width="118" height="65" viewBox="0 0 118 65" fill="none" xmlns="http://www.w3.org/2000/svg">
<path fill-rule="evenodd" clip-rule="evenodd" d="M81.476 1.93064C80.566 2.93664 79.821 4.57164 79.821 5.56464C79.821 6.55864 83.871 11.5006 88.821 16.5486C93.771 21.5956 97.821 26.0356 97.821 26.4136C97.821 26.7916 76.211 27.1016 49.8 27.1016H1.778L0.639 29.6016C-0.213 31.4716 -0.213 32.7316 0.639 34.6016L1.778 37.1016H49.8C76.211 37.1016 97.821 37.4116 97.821 37.7896C97.821 38.1676 93.771 42.6076 88.821 47.6546C83.609 52.9696 79.821 57.6656 79.821 58.8116C79.821 61.4316 82.884 64.1016 85.889 64.1016C89.234 64.1016 117.821 35.4536 117.821 32.1016C117.821 30.4646 113.525 25.4726 103.06 14.9476C87.511 -0.69136 85.141 -2.12036 81.476 1.93064Z" fill="black"/>
</svg>
