<svg width="128" height="80" viewBox="0 0 128 80" fill="none" xmlns="http://www.w3.org/2000/svg">
<path fill-rule="evenodd" clip-rule="evenodd" d="M5.97915 0.6973C2.37254 2.24788 0.0261365 6.03892 0.00013205 10.3567C-0.0198714 13.8192 2.20051 16.5579 28.733 45.7944C44.8448 63.5484 58.9172 78.154 60.7385 79.0136C63.526 80.3288 64.4521 80.3288 67.2396 79.0136C69.0609 78.154 83.1333 63.5484 99.2451 45.7944C124.946 17.4744 128 13.736 128 10.591C128 3.44366 121.937 -1.65595 116.211 0.674304C114.719 1.28205 102.363 13.9429 88.7523 28.8114L64.0081 55.8425L38.6987 28.2113C24.7794 13.0143 12.8843 0.58013 12.2672 0.58013C11.6491 0.58013 10.5439 0.364407 9.81181 0.101596C9.07868 -0.162309 7.35439 0.105977 5.97915 0.6973Z" fill="black"/>
</svg>
