<svg width="353" height="352" viewBox="0 0 353 352" fill="none" xmlns="http://www.w3.org/2000/svg">
<path fill-rule="evenodd" clip-rule="evenodd" d="M169.611 1.07865C166.497 2.76765 3.16353 166.092 1.54653 169.133C-3.56147 178.74 4.70153 191.933 15.8245 191.933C18.2535 191.933 21.2245 191.436 22.4265 190.829C23.6275 190.222 58.6975 155.686 100.361 114.082L176.111 38.4376L251.861 114.082C293.524 155.686 328.594 190.222 329.795 190.829C330.997 191.436 333.968 191.933 336.397 191.933C347.52 191.933 355.783 178.74 350.675 169.133C348.938 165.866 185.529 2.60364 182.427 1.03664C179.654 -0.364359 172.227 -0.340351 169.611 1.07865ZM169.611 161.079C166.497 162.768 3.16353 326.092 1.54653 329.133C-3.56147 338.74 4.70153 351.933 15.8245 351.933C18.2535 351.933 21.2245 351.436 22.4265 350.829C23.6275 350.222 58.6975 315.686 100.361 274.082L176.111 198.438L251.861 274.082C293.524 315.686 328.594 350.222 329.795 350.829C330.997 351.436 333.968 351.933 336.397 351.933C347.52 351.933 355.783 338.74 350.675 329.133C348.938 325.866 185.529 162.604 182.427 161.037C179.654 159.636 172.227 159.66 169.611 161.079Z" fill="black"/>
</svg>
