<svg width="100" height="100" viewBox="0 0 100 100" fill="none" xmlns="http://www.w3.org/2000/svg">
<path fill-rule="evenodd" clip-rule="evenodd" d="M36.341 1.31933C21.816 5.32533 8.332 17.4733 2.23 32.0493C0.326 36.5943 0 39.2043 0 49.8743C0 60.6413 0.318 63.1343 2.29 67.8533C7.677 80.7413 18.562 91.6263 31.45 97.0133C36.169 98.9853 38.662 99.3033 49.429 99.3033C63.815 99.3033 68.426 97.9133 78.908 90.4173C113.47 65.7003 102.629 11.7353 60.929 0.922331C55.571 -0.466669 42.022 -0.24867 36.341 1.31933ZM66.158 40.1023C70.707 44.6273 74.429 49.0253 74.429 49.8743C74.429 50.7233 70.661 55.1673 66.055 59.7493C58.516 67.2493 57.469 67.9663 55.555 66.9413C52.395 65.2503 52.956 62.7423 57.48 58.3273L61.531 54.3743L43.837 53.8743C28.408 53.4383 26.002 53.1503 25.041 51.6243C24.239 50.3493 24.239 49.3993 25.042 48.1243C26.01 46.5873 28.23 46.3413 43.287 46.1003C52.715 45.9503 60.429 45.4763 60.429 45.0473C60.429 44.6173 58.854 42.7403 56.929 40.8743C55.004 39.0083 53.429 36.7603 53.429 35.8783C53.429 34.0673 55.307 31.8743 56.858 31.8743C57.424 31.8743 61.609 35.5773 66.158 40.1023Z" fill="#891D1C"/>
</svg>
