<svg width="100" height="100" viewBox="0 0 100 100" fill="none" xmlns="http://www.w3.org/2000/svg">
<path fill-rule="evenodd" clip-rule="evenodd" d="M63.1849 97.9839C77.7099 93.9779 91.1939 81.8299 97.2959 67.2539C99.1999 62.7089 99.5259 60.0989 99.5259 49.4289C99.5259 38.6619 99.2079 36.1689 97.2359 31.4499C91.8489 18.5619 80.9639 7.67689 68.0759 2.28989C63.3569 0.317894 60.8639 -0.000106812 50.0969 -0.000106812C35.7109 -0.000106812 31.0999 1.38989 20.6179 8.88589C-13.9441 33.6029 -3.10312 87.5679 38.5969 98.3809C43.9549 99.7699 57.5039 99.5519 63.1849 97.9839ZM33.3679 59.2009C28.8189 54.6759 25.0969 50.2779 25.0969 49.4289C25.0969 48.5799 28.8649 44.1359 33.4709 39.5539C41.0099 32.0539 42.0569 31.3369 43.9709 32.3619C47.1309 34.0529 46.5699 36.5609 42.0459 40.9759L37.9949 44.9289L55.6889 45.4289C71.1179 45.8649 73.5239 46.1529 74.4849 47.6789C75.2869 48.9539 75.2869 49.9039 74.4839 51.1789C73.5159 52.7159 71.2959 52.9619 56.2389 53.2029C46.8109 53.3529 39.0969 53.8269 39.0969 54.2559C39.0969 54.6859 40.6719 56.5629 42.5969 58.4289C44.5219 60.2949 46.0969 62.5429 46.0969 63.4249C46.0969 65.2359 44.2189 67.4289 42.6679 67.4289C42.1019 67.4289 37.9169 63.7259 33.3679 59.2009Z" fill="#891D1C"/>
</svg>
