<svg width="128" height="25" viewBox="0 0 128 25" fill="none" xmlns="http://www.w3.org/2000/svg">
<path fill-rule="evenodd" clip-rule="evenodd" d="M10.7307 0.080397C7.01743 0.712147 3.36943 3.1984 1.65493 6.26614C-1.15932 11.3011 -0.339068 17.0896 3.77068 21.1994C5.26343 22.6921 6.61668 23.5006 8.98068 24.3124C10.3119 24.7694 12.0654 24.7844 63.9807 24.7844C115.896 24.7844 117.649 24.7694 118.981 24.3124C121.345 23.5006 122.698 22.6921 124.191 21.1994C129.235 16.1546 129.236 8.6649 124.193 3.6214C122.713 2.14215 121.663 1.49389 119.243 0.566145L117.856 0.0343956L64.6057 0.00414502C35.3182 -0.012355 11.0744 0.021897 10.7307 0.080397Z" fill="black"/>
</svg>
