<svg width="394" height="512" viewBox="0 0 394 512" fill="none" xmlns="http://www.w3.org/2000/svg">
<path fill-rule="evenodd" clip-rule="evenodd" d="M170.467 1.68237C127.415 7.19437 87.0236 27.0494 55.8576 58.0224C28.0656 85.6424 11.3466 116.264 3.42864 154.051C-0.172362 171.235 -1.07836 200.429 1.38764 219.798C3.35864 235.277 8.25963 255.53 13.4376 269.6C19.1196 285.038 31.0846 308.544 40.1976 322.173C44.7506 328.981 79.6446 373.767 117.74 421.698C169.455 486.765 187.86 509.251 190.383 510.448C194.684 512.489 199.24 512.486 203.553 510.44C206.098 509.232 224.291 487.006 276.198 421.69C314.286 373.763 349.172 328.981 353.723 322.173C362.836 308.54 374.801 285.031 380.48 269.6C385.658 255.53 390.559 235.277 392.53 219.798C394.996 200.429 394.09 171.235 390.489 154.051C384.553 125.723 374.224 102.679 357.15 79.6734C348.225 67.6474 330.712 49.8904 319.179 41.1744C276.458 8.88536 223.68 -5.12963 170.467 1.68237ZM214.748 31.1184C280.257 38.3154 335.925 81.9144 355.864 141.639C362.097 160.309 363.39 169.293 363.41 194.051C363.424 211.784 363.046 218.458 361.626 225.551C354.811 259.594 341.454 289.124 320.014 317.551C305.169 337.234 197.857 471.551 196.977 471.551C196.098 471.551 88.8436 337.34 73.9076 317.551C53.2816 290.222 39.1426 259.441 32.7786 228.007C30.7496 217.99 30.4636 213.725 30.4976 194.051C30.5406 169.296 31.8476 160.228 38.0536 141.639C51.2896 101.993 81.4716 67.8264 120.556 48.2454C149.592 33.6984 182.977 27.6274 214.748 31.1184ZM182.959 124.678C164.175 128.238 145.313 140.243 134.452 155.551C123.979 170.312 119.803 183.282 119.803 201.051C119.803 231.679 135.597 256.775 163.815 270.986C178.607 278.435 199.817 280.538 216.233 276.183C243.104 269.054 265.056 247.055 272.1 220.195C274.742 210.119 274.913 193.327 272.472 183.551C266.817 160.907 251.938 142.136 231.437 131.784C220.397 126.21 214.363 124.837 199.459 124.511C191.759 124.342 184.334 124.417 182.959 124.678ZM208.591 155.441C237.408 163.114 252.096 194.747 239.351 221.687C234.21 232.556 222.644 242.491 210.868 246.156C190.083 252.625 167.026 243.382 155.691 224.036C150.545 215.254 148.558 200.842 151.02 190.163C154.692 174.233 168.607 159.982 184.871 155.496C191.042 153.793 202.305 153.767 208.591 155.441Z" fill="black"/>
</svg>
