<svg width="128" height="128" viewBox="0 0 128 128" fill="none" xmlns="http://www.w3.org/2000/svg">
<path fill-rule="evenodd" clip-rule="evenodd" d="M60.9911 0.369361C58.3044 1.08842 55.2164 3.56549 53.9764 5.99653C52.7353 8.42933 52.7391 8.3548 52.7391 31.2779V52.7281L30.6713 52.7972L8.60354 52.8662L7.22821 53.4272C4.41128 54.5762 1.73214 57.2478 0.729153 59.9082C-1.20506 65.0387 0.816424 70.8497 5.5188 73.6772C8.19519 75.2863 7.61405 75.2508 31.2865 75.2508H52.7391V96.7076C52.7391 120.385 52.7036 119.803 54.3125 122.48C57.1394 127.183 62.9493 129.205 68.0788 127.271C70.7387 126.268 73.4098 123.588 74.5586 120.77L75.1195 119.395L75.1885 97.3293L75.2575 75.2638L97.3188 75.1948L119.38 75.1258L120.841 74.5363C123.58 73.4315 126.247 70.7239 127.283 67.9977C129.628 61.8251 126.002 54.7868 119.621 53.1246C118.355 52.7944 115.164 52.7411 96.6971 52.7411H75.2445V31.2844C75.2445 7.88034 75.2627 8.20423 73.8099 5.72091C72.8647 4.10522 70.9422 2.15713 69.5396 1.39355C67.0133 0.0182095 63.7597 -0.371458 60.9911 0.369361Z" fill="black"/>
</svg>
