<svg width="512" height="512" viewBox="0 0 512 512" fill="none" xmlns="http://www.w3.org/2000/svg">
<path fill-rule="evenodd" clip-rule="evenodd" d="M264.965 1.11064C221.436 5.57864 178.518 23.7176 144.832 51.8836C56.649 125.619 38.156 252.429 101.638 348.087L108.288 358.107L56.246 410.29C6.71395 459.957 4.09796 462.762 1.98596 468.473C-3.77104 484.042 3.36796 501.584 18.491 509.025C22.585 511.04 24.968 511.473 31.965 511.473C46.409 511.473 44.51 512.976 102.697 455.504C130.835 427.712 154.316 404.973 154.878 404.973C155.44 404.973 159.852 407.611 164.682 410.835C235.679 458.224 330.183 460.238 403.546 415.924C423.784 403.7 447.144 383.42 461.66 365.473C528.771 282.499 528.771 165.447 461.66 82.4726C447.144 64.5256 423.784 44.2456 403.546 32.0216C362.994 7.52664 312.402 -3.75736 264.965 1.11064ZM303.109 65.0296C324.003 67.1616 341.454 72.1646 359.454 81.1846C438.167 120.628 470.228 216.622 430.904 295.112C391.612 373.537 298.241 405.585 218.965 367.855C202.071 359.814 190.129 351.218 175.424 336.514C160.72 321.809 152.124 309.867 144.083 292.973C131.781 267.124 126.368 238.222 128.867 211.723C131.666 182.039 139.946 158.222 155.724 134.473C164.679 120.994 184.808 100.879 198.465 91.7626C229.97 70.7336 266.801 61.3246 303.109 65.0296Z" fill="black"/>
</svg>
