<svg width="512" height="330" viewBox="0 0 512 330" fill="none" xmlns="http://www.w3.org/2000/svg">
<path fill-rule="evenodd" clip-rule="evenodd" d="M9.558 1.17943C0.926001 5.02543 -2.696 16.3884 2.332 23.8494C3.582 25.7054 6.124 28.2474 7.98 29.4974L11.354 31.7714H256.058H500.762L504.136 29.4974C509.928 25.5944 512.303 21.1024 511.811 14.9804C511.361 9.36543 509.371 5.84143 504.673 2.33343L501.911 0.271434L257.235 0.0574372C54.853 -0.119563 12.039 0.0744312 9.558 1.17943ZM7.98 151.045C-2.66 158.215 -2.66 171.327 7.98 178.497L11.354 180.771H256.058H500.762L504.068 178.521C509.195 175.031 511.339 171.444 511.811 165.562C512.303 159.44 509.928 154.948 504.136 151.045L500.762 148.771H256.058H11.354L7.98 151.045ZM7.98 300.045C2.188 303.948 -0.187 308.44 0.305 314.562C0.755 320.177 2.745 323.701 7.443 327.209C10.198 329.266 10.507 329.271 136.058 329.271C261.609 329.271 261.918 329.266 264.673 327.209C269.371 323.701 271.361 320.177 271.811 314.562C272.303 308.44 269.928 303.948 264.136 300.045L260.762 297.771H136.058H11.354L7.98 300.045Z" fill="black"/>
</svg>
