<svg width="513" height="513" viewBox="0 0 513 513" fill="none" xmlns="http://www.w3.org/2000/svg">
<path fill-rule="evenodd" clip-rule="evenodd" d="M14.52 2.32439C2.35105 7.99039 -3.30095 22.8744 2.12605 34.9574C3.70105 38.4624 28.079 63.3994 112.35 147.709L220.553 255.962L112.347 364.209C27.9831 448.605 3.69605 473.449 2.12305 476.957C-6.96095 497.213 14.814 518.987 35.061 509.892C38.566 508.317 63.5031 483.939 147.813 399.668L256.066 291.465L364.313 399.671C448.709 484.035 473.553 508.322 477.061 509.895C488.895 515.202 503.031 510.014 509.268 498.075C512.742 491.424 513.01 483.667 509.996 476.957C508.421 473.452 484.043 448.515 399.772 364.205L291.569 255.952L399.775 147.705C484.139 63.3094 508.426 38.4654 509.999 34.9574C513.912 26.2334 511.912 14.6994 505.252 7.58139C498.551 0.418386 486.106 -2.03661 477.061 2.01939C473.553 3.59239 448.709 27.8804 364.311 112.245L256.061 220.454L147.811 112.245C63.413 27.8804 38.569 3.59239 35.061 2.01939C28.822 -0.778614 20.932 -0.661614 14.52 2.32439Z" fill="black"/>
</svg>
