<svg width="513" height="360" viewBox="0 0 513 360" fill="none" xmlns="http://www.w3.org/2000/svg">
<path fill-rule="evenodd" clip-rule="evenodd" d="M33.0255 1.56938C18.2445 5.54138 5.3955 18.5444 1.5435 33.4264C0.189504 38.6594 0.00150405 56.5344 0.00150405 179.966C0.00150405 333.627 -0.249496 326.739 5.7335 336.951C9.4775 343.341 15.9725 349.951 22.1655 353.674C33.3715 360.41 16.8755 359.966 256.001 359.966C495.128 359.966 478.631 360.41 489.837 353.674C496.03 349.951 502.526 343.341 506.27 336.951C512.253 326.739 512.002 333.627 512.002 179.966C512.002 26.3054 512.253 33.1934 506.27 22.9814C502.526 16.5914 496.03 9.98139 489.837 6.25839C478.625 -0.481615 495.21 -0.0406126 255.542 0.0323874C67.7795 0.0893874 37.7625 0.296382 33.0255 1.56938ZM437.184 52.7164C393.176 98.1114 265.444 224.896 262.686 225.92C259.081 227.259 252.922 227.259 249.317 225.92C246.461 224.859 149.385 128.558 86.8165 64.7164L52.7595 29.9664H256H459.238L437.184 52.7164ZM158.002 179.956C158.002 180.375 129.224 209.686 94.0505 245.092L30.0995 309.466L30.0985 179.966L30.0975 50.4664L94.0495 114.83C129.223 150.23 158.002 179.536 158.002 179.956ZM481.947 180.216L481.892 309.466L417.943 244.978C382.77 209.509 354.113 180.133 354.258 179.698C354.569 178.765 480.971 50.9664 481.583 50.9664C481.813 50.9664 481.977 109.128 481.947 180.216ZM202.511 224.01C214.606 236.133 226.776 247.574 229.556 249.433C244.146 259.19 264.779 259.929 280.001 251.24C282.476 249.827 295.227 238.05 308.336 225.069L332.171 201.466L395.797 265.466L459.422 329.466L357.712 329.721C301.771 329.861 210.287 329.861 154.413 329.721L52.8225 329.466L116.005 265.716C150.755 230.654 179.487 201.966 179.853 201.966C180.219 201.966 190.415 211.886 202.511 224.01Z" fill="black"/>
</svg>
