<svg width="512" height="356" viewBox="0 0 512 356" fill="none" xmlns="http://www.w3.org/2000/svg">
<path fill-rule="evenodd" clip-rule="evenodd" d="M56.6596 1.21303C43.7716 5.84003 41.9256 21.754 53.2986 30.181L56.1216 32.273L185.011 32.534L313.9 32.795L314.188 91.034C314.445 143.005 314.654 149.596 316.131 152.273C318.275 156.16 321.76 159.369 325.291 160.706C327.173 161.419 349.387 161.791 392.291 161.829L456.476 161.884L468.204 177.079L479.933 192.273L479.954 233.523L479.976 274.773H464.634H449.293L448.038 270.523C443.614 255.539 430.539 240.629 414.898 232.734C396.629 223.512 373.748 224.19 354.976 234.509C342.418 241.413 329.421 257.258 325.017 271.033L323.815 274.792L276.318 274.533L228.822 274.273L226.976 269.028C222.237 255.572 210.229 241.284 197.976 234.523C183.528 226.55 165.01 224.104 149.976 228.183C129.493 233.739 111.26 250.6 105.272 269.523L103.611 274.773H81.5046C60.5666 274.773 59.1646 274.892 54.9456 277.023C48.8506 280.102 45.9756 284.669 45.9756 291.273C45.9756 297.877 48.8506 302.444 54.9456 305.523C59.1646 307.655 60.5656 307.773 81.5536 307.773H103.708L105.836 313.608C111.04 327.881 123.217 341.317 137.476 348.52C157.699 358.735 183.403 357.034 202.124 344.242C213.33 336.586 223.21 324.052 226.654 313.125L228.341 307.773H276.252H324.163L324.75 310.018C325.073 311.254 327.128 315.84 329.316 320.212C333.994 329.559 345.028 341.25 354.314 346.699C368.766 355.178 389.507 357.483 405.497 352.387C424.354 346.377 440.66 331.156 447.133 313.523L449.244 307.773H473.898C497.478 307.773 498.746 307.675 503.01 305.523C505.947 304.04 508.231 301.909 509.705 299.273L511.943 295.273L511.96 239.672C511.971 201.523 511.628 183.074 510.868 180.892C510.258 179.144 502.822 168.839 494.344 157.993L478.928 138.273L454.839 90.273C441.59 63.873 429.652 40.81 428.311 39.022C423.606 32.749 423.781 32.773 383.526 32.773H346.976V23.089C346.976 11.642 345.112 6.69902 339.314 2.77302L335.623 0.273023L198.05 0.0580269C83.6776 -0.120973 59.8316 0.0740256 56.6596 1.21303ZM421.585 96.787L437.694 128.773H392.335H346.976V96.773V64.773L376.226 64.787L405.476 64.802L421.585 96.787ZM33.8736 69.031C30.1306 71.518 25.9756 78.748 25.9756 82.773C25.9756 87.332 30.1516 94.083 34.4756 96.513L38.4756 98.761L112.153 98.517C185.153 98.275 185.856 98.254 188.653 96.181C198.265 89.058 198.488 75.591 189.101 69.212L185.512 66.773H111.392H37.2716L33.8736 69.031ZM9.47762 131.348C5.10562 133.628 2.87463 135.86 1.33763 139.491C-2.64137 148.891 2.58463 159.135 12.6686 161.704C18.3966 163.164 149.991 163.178 156.792 161.719C168.511 159.206 173.744 145.713 166.623 136.376C161.355 129.471 165.095 129.772 84.8246 129.779C21.1696 129.785 12.1156 129.973 9.47762 131.348ZM39.4756 193.702C34.8926 194.808 32.3006 196.481 29.5186 200.127C23.6216 207.859 26.1676 218.834 34.9356 223.47C39.2756 225.765 39.4236 225.773 79.8826 225.757C120.04 225.74 120.519 225.716 124.476 223.502C129.84 220.502 133.279 213.942 132.651 207.909C131.927 200.962 126.764 195.439 119.399 193.73C114.8 192.664 43.8816 192.638 39.4756 193.702ZM177.657 260.927C198.585 268.757 204.819 297.037 189.083 312.757C182.037 319.795 176.149 322.273 166.476 322.272C156.925 322.271 149.628 319.375 143.519 313.162C137.444 306.984 134.541 299.712 134.579 290.773C134.614 282.792 136.076 278.159 140.649 271.536C143.577 267.297 151.876 261.422 157.023 259.944C163.045 258.216 171.487 258.618 177.657 260.927ZM400.043 261.916C420.137 271.225 424.885 297.44 409.324 313.16C403.121 319.426 395.987 322.271 386.476 322.272C379.733 322.273 377.578 321.832 372.762 319.467C353.023 309.774 348.859 282.823 364.729 267.476C373.797 258.708 388.217 256.438 400.043 261.916Z" fill="black"/>
</svg>
