<svg width="120" height="120" viewBox="0 0 120 120" fill="none" xmlns="http://www.w3.org/2000/svg">
<path fill-rule="evenodd" clip-rule="evenodd" d="M45.626 1.50213C19.446 7.84113 0 32.7391 0 59.9211C0 84.8631 14.952 106.71 38.47 116.133C45.949 119.129 47.284 119.341 58.97 119.379C69.537 119.415 72.603 119.05 78.798 117.021C96.72 111.15 110.577 97.1041 117.332 77.9611C120.114 70.0791 120.251 50.6961 117.581 42.9211C113.832 32.0071 109.848 25.5711 101.94 17.6561C89.882 5.58613 75.918 -0.176868 59.171 0.00413243C54.935 0.0501324 48.84 0.724132 45.626 1.50213ZM76.39 10.8761C92.286 16.3931 103.697 27.8251 109.11 43.6551C113.529 56.5771 111.746 74.5811 104.943 85.7351L102.922 89.0491L98.196 84.8791C93.044 80.3341 85.556 76.2551 76.97 73.3171C72.835 71.9021 68.615 71.4351 59.97 71.4351C51.325 71.4351 47.105 71.9021 42.97 73.3171C34.396 76.2511 26.898 80.3321 21.77 84.8571L17.07 89.0031L15.385 86.4311C14.458 85.0161 12.637 80.9321 11.338 77.3551C0.523 47.5581 18.681 15.7821 50.47 8.87713C56.56 7.55413 69.752 8.57113 76.39 10.8761ZM51.822 17.3121C35.332 23.2031 30.632 44.2971 43.037 56.7431C47.631 61.3521 51.337 63.0531 58.126 63.6691C72.927 65.0111 85.06 52.8781 83.718 38.0771C83.105 31.3221 81.328 27.4331 76.771 22.8761C70.35 16.4541 60.421 14.2401 51.822 17.3121Z" fill="black"/>
</svg>
