<svg width="50" height="30" viewBox="0 0 50 30" fill="none" xmlns="http://www.w3.org/2000/svg">
<path fill-rule="evenodd" clip-rule="evenodd" d="M48.8542 2.39175C49.2 1.25425 48.8542 0.416748 47.1979 0.416748H41.7292C40.3375 0.416748 39.6958 1.13966 39.3479 1.93758C39.3479 1.93758 36.5667 8.59591 32.6271 12.9209C31.3521 14.1751 30.7729 14.573 30.0771 14.573C29.7292 14.573 29.2062 14.1751 29.2062 13.0355V2.39175C29.2062 1.02508 28.8229 0.416748 27.6646 0.416748H19.0646C18.1958 0.416748 17.6729 1.05008 17.6729 1.65216C17.6729 2.94591 19.6437 3.24591 19.8458 6.88758V14.8001C19.8458 16.5355 19.5271 16.8501 18.8312 16.8501C16.9771 16.8501 12.4667 10.1605 9.78958 2.50633C9.27083 1.01675 8.74583 0.416748 7.34792 0.416748H1.875C0.3125 0.416748 0 1.13966 0 1.93758C0 3.35841 1.85417 10.4167 8.63542 19.7522C13.1562 26.1272 19.5208 29.5834 25.3187 29.5834C28.7958 29.5834 29.225 28.8167 29.225 27.4938V22.6751C29.225 21.1397 29.5542 20.8334 30.6562 20.8334C31.4688 20.8334 32.8583 21.2334 36.1042 24.3063C39.8125 27.9501 40.4229 29.5834 42.5104 29.5834H47.9792C49.5417 29.5834 50.325 28.8167 49.875 27.3001C49.3792 25.7917 47.6083 23.6022 45.2604 21.0042C43.9854 19.5251 42.0729 17.9313 41.4917 17.1334C40.6812 16.1105 40.9125 15.6542 41.4917 14.7438C41.4917 14.7438 48.1583 5.523 48.8521 2.39175H48.8542Z" fill="black"/>
</svg>
