<svg width="355" height="356" viewBox="0 0 355 356" fill="none" xmlns="http://www.w3.org/2000/svg">
<path fill-rule="evenodd" clip-rule="evenodd" d="M62.9339 0.700797C53.5525 3.14594 48.2875 7.2372 27.7313 28.0568C10.4719 45.5362 6.80529 50.4153 3.32319 60.53C0.451152 68.874 -0.317696 75.1529 0.109906 86.7661C0.538204 98.4176 1.8809 106.728 5.20491 118.314C12.4108 143.426 25.4457 171.028 42.2405 196.739C76.4946 249.177 121.619 292.403 172.986 321.984C210.343 343.497 241.961 354.656 269.074 355.895C283.386 356.55 294.219 354.157 304.391 348.095C310.63 344.377 313.563 341.656 333.623 320.976C346.677 307.519 348.787 305.027 351.012 300.443C354.363 293.542 355.354 288.944 354.894 282.427C354.455 276.199 352.582 270.835 348.878 265.196C347.268 262.744 335.424 250.437 319.129 234.284C293.404 208.784 291.803 207.334 286.98 205.158C276.659 200.503 267.699 200.627 257.583 205.565C252.91 207.846 250.66 209.795 236.205 224.085L220.05 240.055L212.527 236.044C176.875 217.038 132.827 172.256 117.38 139.313L115.42 135.133L130.331 120.172C145.953 104.496 148.621 101.236 151.592 94.1941C153.145 90.5121 153.409 88.8535 153.437 82.5899C153.474 74.0733 152.443 70.3969 148.135 63.667C144.605 58.1538 96.025 9.4269 90.3799 5.73795C84.3057 1.76781 79.8089 0.320069 72.6838 0.03957C68.9524 -0.106596 65.0072 0.160679 62.9339 0.700797ZM78.3123 19.9752C82.5201 22.0104 131.246 70.9537 133.523 75.4306C135.731 79.7724 135.77 84.7226 133.632 89.2989C132.449 91.8318 127.812 96.8898 115.191 109.414C95.993 128.465 95.1078 129.756 96.5446 136.603C98.7223 146.978 112.832 169.89 128.445 188.404C152.857 217.35 180.41 240.325 207.618 254.419C223.33 262.558 223.245 262.591 246.092 239.974C264.096 222.152 266.479 220.404 272.76 220.404C279.224 220.404 281.078 221.906 308.169 249.091C325.069 266.05 333.858 275.374 334.926 277.478C337.256 282.068 337.14 287.9 334.63 292.456C333.433 294.629 326.172 302.575 315.174 313.749C299.45 329.724 297.139 331.806 292.92 333.798C285.729 337.194 279.635 338.246 269.771 337.792C248.608 336.818 223.716 328.664 194.557 313.154C153.731 291.437 122.233 266.315 90.0532 229.8C65.1103 201.497 42.5623 165.795 30.7099 135.836C16.2077 99.1784 14.3016 74.683 24.688 58.4363C27.5294 53.9908 54.696 26.1497 60.0062 22.2408C66.1688 17.7041 72.1009 16.9698 78.3123 19.9752Z" fill="black"/>
</svg>
