<svg width="512" height="456" viewBox="0 0 512 456" fill="none" xmlns="http://www.w3.org/2000/svg">
<path fill-rule="evenodd" clip-rule="evenodd" d="M127.45 0.392799C108.042 3.3418 94.6001 7.4138 79.9501 14.7848C52.7861 28.4528 28.7401 53.5388 15.5361 81.9868C5.2641 104.119 0.0271025 127.981 0.000102488 152.771C-0.0598975 209.228 26.2211 258.585 88.1791 318.372C106.194 335.756 128.569 355.551 186.95 405.752C223.291 437.002 240.043 450.777 243.861 452.551C251.359 456.035 260.537 456.036 268.039 452.554C276.176 448.777 392.321 348.673 423.721 318.372C485.679 258.585 511.96 209.228 511.9 152.771C511.854 110.21 496.712 71.2398 469.066 42.5368C448.738 21.4318 423.988 7.8628 395.289 2.0908C382.719 -0.437201 354.697 -0.403202 342.95 2.1538C332.514 4.4258 319.614 8.9118 310.889 13.3028C294.05 21.7788 275.245 37.1468 262.831 52.5788C259.428 56.8088 256.331 60.2708 255.95 60.2708C255.569 60.2708 252.472 56.8088 249.069 52.5788C228.74 27.3088 201.057 9.6098 170.95 2.6328C162.638 0.706798 134.815 -0.725201 127.45 0.392799ZM163.984 32.2008C192.179 38.7478 215.625 55.9498 234.849 84.1908C238.756 89.9318 243.137 95.5588 244.582 96.6968C250.491 101.344 259.865 101.649 266.177 97.3988C267.977 96.1868 272.684 90.4868 276.637 84.7328C304.108 44.7438 339.472 26.3128 380.294 30.7078C432.393 36.3168 470.983 75.2278 480.03 131.271C481.871 142.677 481.637 166.218 479.568 177.771C474.975 203.413 461.437 230.091 438.971 257.771C426.436 273.216 392.308 307.109 365.914 330.327C331.751 360.378 256.946 424.271 255.926 424.271C254.945 424.271 172.065 353.365 141.475 326.356C118.195 305.8 84.8331 272.415 72.9371 257.771C50.4811 230.127 36.9271 203.422 32.3321 177.771C30.2631 166.218 30.0291 142.677 31.8701 131.271C40.6981 76.5828 78.9511 37.0018 128.95 30.8188C138.661 29.6188 155.768 30.2928 163.984 32.2008Z" fill="black"/>
</svg>
