<svg width="49" height="49" viewBox="0 0 49 49" fill="none" xmlns="http://www.w3.org/2000/svg">
<path fill-rule="evenodd" clip-rule="evenodd" d="M18.7182 0.504659C9.95951 2.88233 3.0178 9.8698 0.819263 18.5221C-0.424047 23.4139 0.191229 29.6446 2.39882 34.5262L3.32564 36.5759L1.61604 42.7251C0.67563 46.1071 -0.0503545 48.9288 0.00273619 48.9956C0.0558269 49.0624 2.93425 48.3651 6.39873 47.4456L12.6984 45.7738L15.1941 46.7618C22.0025 49.458 29.0981 49.2563 35.2307 46.1928C41.5131 43.0547 45.7637 38.0854 48.1902 31.0417C49.3541 27.6634 49.2458 20.3029 47.9786 16.6937C45.397 9.34016 39.35 3.29965 32.3292 1.06136C28.7573 -0.0774601 21.8959 -0.357861 18.7182 0.504659ZM31.2374 5.20014C36.3859 6.97274 40.4587 10.6237 42.8099 15.5746C48.7059 27.9889 41.0094 42.1831 27.2901 44.1964C23.5232 44.7494 19.1257 44.0357 15.5443 42.2906L13.3458 41.219L9.85374 42.1381C7.93301 42.6435 6.28102 42.9764 6.18266 42.8784C6.08389 42.7804 6.44318 41.1927 6.98108 39.3508L7.95853 36.0016L6.57611 33.2648C3.78452 27.7376 3.72855 21.1932 6.42507 15.5496C8.95778 10.2482 14.8842 5.59533 20.5744 4.44052C23.4478 3.85758 28.3536 4.20685 31.2374 5.20014ZM13.8425 14.4304C10.6032 18.1051 12.2753 23.5262 18.5425 29.6717C21.4679 32.5396 23.6977 33.9564 27.1494 35.1391C30.2323 36.1955 32.4128 36.1804 34.3627 35.0887C36.1032 34.1146 36.8086 33.0656 36.9424 31.2537C37.0238 30.1489 36.7938 29.9021 34.5632 28.703C31.3864 26.9948 30.6036 27.0071 29.2409 28.787C28.6367 29.5762 27.8099 30.2218 27.4037 30.2218C26.1225 30.2218 21.7617 27.105 20.2093 25.0803C18.5837 22.9593 18.3738 21.9984 19.3582 21.1846C20.7336 20.0475 20.7875 19.3231 19.6961 16.6371C18.3404 13.3006 18.075 13.0042 16.4469 13.0042C15.4237 13.0042 14.7969 13.3473 13.8425 14.4304Z" fill="black"/>
</svg>
