<svg width="50" height="34" viewBox="0 0 50 34" fill="none" xmlns="http://www.w3.org/2000/svg">
<path d="M48.9584 5.55625C48.6753 4.54631 48.1238 3.63197 47.3626 2.91041C46.5798 2.16667 45.6205 1.63465 44.5751 1.36458C40.6626 0.333329 24.9876 0.333329 24.9876 0.333329C18.4528 0.25898 11.9197 0.585984 5.42507 1.3125C4.37963 1.60252 3.42207 2.14643 2.63757 2.89583C1.86673 3.6375 1.3084 4.55208 1.01673 5.55416C0.316092 9.32863 -0.0243265 13.1611 6.50954e-05 17C-0.0249349 20.8354 0.314648 24.6667 1.01673 28.4458C1.30215 29.4437 1.8584 30.3542 2.63132 31.0896C3.40423 31.825 4.36673 32.3562 5.42507 32.6375C9.38965 33.6667 24.9876 33.6667 24.9876 33.6667C31.5306 33.7411 38.0721 33.4141 44.5751 32.6875C45.6205 32.4174 46.5798 31.8854 47.3626 31.1417C48.1334 30.4062 48.6813 29.4917 48.9563 28.4958C49.6753 24.7228 50.0248 20.8887 50.0001 17.0479C50.0541 13.1908 49.705 9.33867 48.9584 5.55416V5.55625ZM20.0042 24.1333V9.86874L33.0459 17.0021L20.0042 24.1333Z" fill="black"/>
</svg>
