<svg width="256" height="236" viewBox="0 0 256 236" fill="none" xmlns="http://www.w3.org/2000/svg">
<path fill-rule="evenodd" clip-rule="evenodd" d="M0 8.48V16.959L20.688 17.23L41.376 17.5L61.658 98.5C72.814 143.05 81.954 179.835 81.97 180.245C81.987 180.655 79.996 181.932 77.546 183.084C72.286 185.556 65.749 192.321 63.438 197.683C61.254 202.75 61.193 213.394 63.32 218.338C65.929 224.401 70.413 229.358 76.176 232.551C80.761 235.09 82.541 235.496 89 235.477C100.474 235.441 108.563 230.553 113.783 220.5C116.5 215.267 117.397 205.708 115.731 199.75L114.962 197H145.026H175.091L174.325 200.75C171.567 214.265 176.783 226.24 188.176 232.551C192.763 235.091 194.539 235.496 201 235.475C207.136 235.454 209.409 234.971 213.5 232.818C223.583 227.511 228.441 219.46 228.477 208C228.496 201.541 228.09 199.761 225.551 195.176C222.39 189.47 217.511 185.027 211.338 182.236C207.874 180.669 202.229 180.472 153.437 180.21L99.374 179.92L97.096 170.47C95.843 165.273 94.582 160.116 94.293 159.011C93.77 157.011 94.142 157 160.345 157H226.923L227.914 153.25C230.025 145.261 256 41 256 40.514C256 40.231 212.897 40 160.215 40H64.43L59.5 20L54.57 0H27.285H0V8.48ZM97.336 57.75C97.586 58.162 98.528 64.575 99.43 72C100.332 79.425 101.287 86.513 101.554 87.75C102.036 89.989 101.977 90 89.558 90H77.077L76.092 86.25C73.905 77.925 69 58.081 69 57.558C69 56.705 96.817 56.893 97.336 57.75ZM143 73.5V90H131.045H119.091L118.548 86.75C117.783 82.167 115 59.848 115 58.292C115 57.298 118.227 57 129 57H143V73.5ZM188.999 57.25C188.998 57.388 188.099 64.475 187 73C185.901 81.525 185.002 88.838 185.001 89.25C185.001 89.662 179.375 90 172.5 90H160V74.167C160 65.458 160.3 58.033 160.667 57.667C161.269 57.065 189.002 56.657 188.999 57.25ZM233.973 58.25C233.958 58.938 232.243 66.25 230.162 74.5L226.378 89.5L214.189 89.781C207.485 89.935 202.001 89.935 202.001 89.781C202.002 89.626 202.901 82.525 204 74C205.099 65.475 205.998 58.162 205.999 57.75C205.999 57.338 212.3 57 220 57C230.548 57 233.993 57.308 233.973 58.25ZM104.001 107.75C104.002 108.162 104.901 115.475 106 124C107.099 132.525 107.998 139.613 107.999 139.75C107.999 139.887 103.827 140 98.726 140H89.452L85.357 123.5L81.261 107H92.631C98.884 107 104.001 107.338 104.001 107.75ZM143 123.5V140H134C129.05 140 124.999 139.662 124.999 139.25C124.998 138.838 124.099 131.525 123 123C121.901 114.475 121.002 107.388 121.001 107.25C121.001 107.112 125.95 107 132 107H143V123.5ZM182.645 108.75C182.375 109.713 181.374 117.138 180.419 125.25L178.684 140H169.342H160V123.5V107H171.567C182.104 107 183.091 107.156 182.645 108.75ZM221.608 108.75C221.318 109.713 219.432 117.138 217.417 125.25L213.752 140H204.876C198.29 140 196 139.667 196 138.708C196 137.152 198.783 114.833 199.548 110.25L200.091 107H211.113C221.144 107 222.087 107.157 221.608 108.75ZM95.24 199.168C97.366 200.257 100 205.145 100 208C100 213.395 94.286 219.005 88.8 218.996C82.64 218.986 77.477 212.188 78.714 205.717C79.27 202.806 83.562 198.408 86.5 197.738C88.779 197.219 92.681 197.857 95.24 199.168ZM207.24 199.168C209.366 200.257 212 205.145 212 208C212 213.395 206.286 219.005 200.8 218.996C194.64 218.986 189.477 212.188 190.714 205.717C191.27 202.806 195.562 198.408 198.5 197.738C200.779 197.219 204.681 197.857 207.24 199.168Z" fill="black"/>
</svg>
