<svg width="512" height="512" viewBox="0 0 512 512" fill="none" xmlns="http://www.w3.org/2000/svg">
<path fill-rule="evenodd" clip-rule="evenodd" d="M226.59 1.39338C155.177 10.0904 93.4875 45.5474 50.4255 102.648C25.3105 135.95 8.6185 176.161 1.9605 219.397C-0.6535 236.372 -0.6535 275.422 1.9605 292.397C12.4935 360.796 47.4935 419.638 102.237 460.974C135.819 486.333 175.625 502.824 219.59 509.593C236.007 512.121 275.367 512.08 292.091 509.518C369.306 497.689 434.728 454.214 474.895 388.04C492.33 359.316 503.9 327.071 509.212 292.397C511.809 275.44 511.809 236.354 509.212 219.397C489.625 91.5414 382.234 -0.811622 254.096 0.00537802C244.743 0.065378 232.365 0.689378 226.59 1.39338ZM274.591 40.9544C331.091 46.1134 384.168 73.4904 419.864 115.886C456.446 159.334 475.093 216.215 470.763 271.147C463.052 368.952 393.644 447.986 298.453 467.352C217.781 483.764 133.557 452.123 84.1875 386.857C58.1685 352.46 43.8435 314.59 40.4185 271.147C35.1375 204.158 64.1085 134.961 115.579 91.6244C160.12 54.1214 217.734 35.7624 274.591 40.9544ZM245.051 100.775C239.964 103.087 233.304 110.569 231.766 115.704C228.166 127.718 232.926 139.456 243.837 145.472C260.074 154.425 280.361 142.566 280.547 124.013C280.613 117.407 278.679 112.278 274.204 107.194C268.921 101.193 263.842 98.9414 255.59 98.9414C251.42 98.9414 247.642 99.5984 245.051 100.775ZM205.855 199.429C194.333 206.405 193.226 224.327 203.831 232.201C208.907 235.97 213.036 236.897 224.74 236.897H235.59V295.397V353.897L223.84 353.919C210.792 353.943 206.318 355.26 201.404 360.521C197.9 364.271 196.59 367.913 196.59 373.897C196.59 382.492 200.355 388.42 208.09 392.001C211.787 393.713 215.384 393.855 255.628 393.875C298.828 393.897 299.201 393.88 303.571 391.647C305.993 390.409 309.351 387.668 311.033 385.554C313.855 382.008 314.091 381.108 314.091 373.897C314.091 366.686 313.855 365.786 311.033 362.24C305.707 355.547 301.029 353.897 287.379 353.897H275.591V283.109V212.321L273.341 207.917C272.103 205.495 269.363 202.137 267.25 200.455L263.409 197.397L236.749 197.131L210.09 196.865L205.855 199.429Z" fill="black"/>
</svg>
