<svg width="352" height="144" viewBox="0 0 352 144" fill="none" xmlns="http://www.w3.org/2000/svg">
<path d="M89.3601 14.1518C126.67 2.19182 166.27 -1.19818 205.27 0.351824C242.88 2.59182 281.19 9.05182 314.88 26.7118C327.52 33.7118 339.97 42.6218 346.97 55.6118C351.05 63.2318 352.37 72.4418 349.79 80.7818C347.07 90.2218 340.54 98.0018 333.22 104.312C323.67 112.422 312.53 118.472 301.01 123.282C274.8 134.332 246.54 139.682 218.31 142.192C174.02 145.692 128.81 142.122 86.3501 128.532C111.54 134.292 137.43 136.682 163.24 136.352C192.66 136.002 222.21 132.252 250.33 123.362C266.71 117.852 283.09 110.882 296.12 99.2218C303.23 92.7518 309.38 84.2718 310.27 74.4318C311.28 65.4418 307.36 56.6518 301.64 49.9018C292.74 39.6418 280.86 32.5118 268.58 26.9918C247.85 17.8418 225.53 12.8218 203.15 9.73182C165.32 4.96182 126.68 6.27182 89.3601 14.1518ZM328.57 66.6518C324.36 68.2018 323.69 74.6518 327.39 77.1318C330.8 79.9118 336.86 77.8018 337.34 73.2718C338.48 68.5118 332.8 64.4218 328.57 66.6518Z" fill="#050505"/>
<path d="M0.250001 14.1919C11.31 18.9819 21.36 26.1619 29.6 34.9519C38.89 45.0819 45.43 58.3819 45.1 72.3619C45.02 86.6719 37.82 100.062 28.02 110.142C20 118.262 10.35 124.732 0 129.492C10.62 119.382 19.75 107.282 24.03 93.0919C30.2 73.9919 27.57 52.4019 17.32 35.1819C12.88 27.2519 6.67 20.5419 0.250001 14.1919Z" fill="#050505"/>
<path d="M66.21 58.332C72.88 58.342 79.56 58.342 86.23 58.332C86.21 68.002 86.22 77.672 86.22 87.342C84.89 87.342 83.55 87.342 82.22 87.342C82.23 79.012 82.21 70.672 82.22 62.342C78.22 62.352 74.22 62.352 70.22 62.342C70.23 70.672 70.21 79.012 70.22 87.342C68.89 87.342 67.55 87.342 66.22 87.342C66.22 77.672 66.23 68.002 66.21 58.332Z" fill="#050505"/>
<path d="M105.22 58.3417C106.55 58.3317 107.89 58.3317 109.22 58.3417C109.24 65.0417 109.17 71.7417 109.27 78.4417C115 71.6517 120.3 64.4717 126.41 58.0117C126.81 67.7817 126.51 77.5717 126.57 87.3417C125.65 87.3417 123.8 87.3417 122.87 87.3417C122.82 80.6717 122.84 74.0017 122.86 67.3417C116.69 73.8617 111.81 81.5817 105.29 87.7317C105.13 77.9317 105.26 68.1317 105.22 58.3417Z" fill="#050505"/>
<path d="M145.21 58.3419C150.16 58.5819 155.76 57.3019 160.05 60.4819C163.38 63.4819 161.89 68.9419 158.02 70.7219C160.88 72.2919 164.08 74.6319 163.71 78.3319C164.19 81.7019 161.99 84.9219 158.94 86.2219C154.61 88.1419 149.78 87.0819 145.21 87.3419C145.23 77.6819 145.23 68.0119 145.21 58.3419ZM149.22 62.3319C149.24 64.6719 149.24 67.0219 149.22 69.3619C152.04 69.1819 155.47 69.9919 157.6 67.6019C158.3 66.0419 158.29 63.7519 156.49 62.9419C154.21 61.9319 151.63 62.4719 149.22 62.3319ZM149.22 73.3319C149.23 76.6719 149.23 80.0119 149.22 83.3619C151.94 83.2119 154.89 83.7719 157.4 82.4619C160.05 81.0919 160.4 77.2319 158.63 75.0219C156.11 72.6019 152.36 73.5419 149.22 73.3319Z" fill="#050505"/>
<path d="M187.62 64.8617C188.63 62.5217 189.24 59.9017 191.01 57.9717C194.8 67.7417 198.66 77.4917 202.27 87.3217C200.88 87.3417 199.5 87.3517 198.11 87.3617C197.39 85.3917 196.69 83.4117 196.02 81.4317C192.26 81.3317 188.48 81.2217 184.73 81.5217C184.19 83.4317 183.57 85.3117 182.97 87.1917C181.52 87.2717 180.07 87.3317 178.62 87.3917C181.32 79.7717 184.7 72.4017 187.62 64.8617ZM186.1 77.2917C189 77.3417 191.89 77.3417 194.78 77.3417C193.49 72.9817 192.08 68.6517 190.71 64.3217C188.91 68.5417 187.56 72.9417 186.1 77.2917Z" fill="#050505"/>
<path d="M221.36 61.462C225.46 57.522 231.95 57.552 236.76 60.162C236.58 60.922 236.22 62.422 236.04 63.182C232.14 62.512 227.38 61.172 224.18 64.312C220.23 68.502 219.94 75.692 223.18 80.372C226.16 84.482 232.22 83.932 236.13 81.542C236.76 82.512 237.38 83.492 238.01 84.472C232.99 88.192 225.14 88.662 220.63 83.902C215.28 77.722 215.55 67.262 221.36 61.462Z" fill="#050505"/>
<path d="M255.11 58.342C256.48 58.342 257.85 58.332 259.23 58.332C259.2 61.662 259.24 64.992 259.21 68.312C262.69 68.282 266.43 68.132 269.54 69.962C275.25 73.362 274.78 83.112 268.83 86.022C264.58 88.202 259.68 87.092 255.11 87.342C255.09 77.672 255.08 68.012 255.11 58.342ZM259.04 72.342C259.01 76.012 259.01 79.682 259.04 83.352C261.78 83.192 264.82 83.822 267.31 82.362C270.49 80.452 270.47 75.242 267.33 73.302C264.81 71.852 261.8 72.472 259.04 72.342Z" fill="#050505"/>
<path d="M277.4 58.3718C278.7 58.3518 280.01 58.3318 281.32 58.3218C281.36 68.0018 281.36 77.6818 281.32 87.3518C280.01 87.3418 278.7 87.3318 277.4 87.3218C277.43 77.6718 277.43 68.0218 277.4 58.3718Z" fill="#050505"/>
</svg>
