<svg width="40" height="40" viewBox="0 0 40 40" fill="none" xmlns="http://www.w3.org/2000/svg">
<path fill-rule="evenodd" clip-rule="evenodd" d="M36 25H35L31 29H30L29 28V25H26.9C27.1955 24.3558 27.4328 23.6865 27.609 23H30L31 24V26.344L34.266 23H36C36.5304 23 37.0391 22.7893 37.4142 22.4142C37.7893 22.0391 38 21.5304 38 21V4C38 3.46957 37.7893 2.96086 37.4142 2.58578C37.0391 2.21071 36.5304 2 36 2H4C3.46957 2 2.96089 2.21071 2.58582 2.58578C2.21074 2.96086 2 3.46957 2 4V21C2 21.5304 2.21074 22.0391 2.58582 22.4142C2.96089 22.7893 3.46957 23 4 23H4.39301C4.5692 23.6865 4.80647 24.3558 5.10199 25H4C2.93913 25 1.92172 24.5786 1.17157 23.8284C0.421424 23.0783 0 22.0609 0 21V4C0 2.93913 0.421424 1.92172 1.17157 1.17157C1.92172 0.421428 2.93913 0 4 0H36C37.0609 0 38.0783 0.421428 38.8284 1.17157C39.5786 1.92172 40 2.93913 40 4V21C40 22.0609 39.5786 23.0783 38.8284 23.8284C38.0783 24.5786 37.0609 25 36 25ZM2.09998 32.159C2.10998 32.159 2.116 32.148 2.125 32.145L10.025 29.275C10.025 29.182 9.99701 29.094 9.99701 29V26.7C8.32136 25.2043 7.26735 23.1348 7.04303 20.9C6.74346 20.8069 6.48105 20.6213 6.29364 20.3697C6.10623 20.1182 6.00344 19.8137 6 19.5V16.5C6.00118 16.1918 6.09803 15.8916 6.27716 15.6408C6.45629 15.39 6.70886 15.2011 7 15.1V11C7 9.4087 7.63217 7.88258 8.75739 6.75736C9.8826 5.63214 11.4087 5 13 5H19C20.5913 5 22.1174 5.63214 23.2426 6.75736C24.3678 7.88258 25 9.4087 25 11V15.1C25.2911 15.2011 25.5437 15.39 25.7228 15.6408C25.902 15.8916 25.9988 16.1918 26 16.5V19.5C25.9981 19.8154 25.8956 20.122 25.7075 20.3752C25.5194 20.6284 25.2554 20.8151 24.954 20.908C24.7277 23.14 23.6739 25.2063 22 26.7V29C22 29.094 21.977 29.182 21.972 29.275L29.872 32.145C29.881 32.145 29.887 32.155 29.897 32.159C30.5045 32.3467 31.0361 32.7236 31.4144 33.2346C31.7927 33.7457 31.9979 34.3642 32 35V37C32 37.7956 31.6839 38.5587 31.1213 39.1213C30.5587 39.6839 29.7956 40 29 40H3C2.20435 40 1.44127 39.6839 0.878662 39.1213C0.316053 38.5587 0 37.7956 0 37V35C0.00192868 34.3646 0.206632 33.7463 0.584351 33.2353C0.962069 32.7243 1.49305 32.3472 2.09998 32.159V32.159ZM12 8V7.141C11.1429 7.3607 10.3831 7.85897 9.84009 8.5575C9.29705 9.25603 9.00155 10.1152 9 11V11C9.61816 10.9992 10.2276 10.8542 10.7798 10.5764C11.3321 10.2986 11.8119 9.89583 12.181 9.4C12.065 8.94223 12.0042 8.47222 12 8V8ZM23 11C23 9.93913 22.5786 8.92172 21.8284 8.17157C21.0783 7.42142 20.0609 7 19 7H14V8C14 9.06087 14.4214 10.0783 15.1716 10.8284C15.9217 11.5786 16.9391 12 18 12H21C21.7042 11.9962 22.3946 11.8046 23 11.445V11ZM23 20V19C23.2652 19 23.5196 18.8946 23.7071 18.7071C23.8946 18.5196 24 18.2652 24 18C24 17.7348 23.8946 17.4804 23.7071 17.2929C23.5196 17.1054 23.2652 17 23 17V13.633C22.3594 13.8693 21.6828 13.9935 21 14H18C17.0256 14.0001 16.0658 13.7625 15.204 13.3078C14.3421 12.8532 13.6042 12.1953 13.054 11.391C11.9567 12.4237 10.5069 12.9992 9 13V13V17C8.73478 17 8.48044 17.1054 8.29291 17.2929C8.10537 17.4804 8 17.7348 8 18C8 18.2652 8.10537 18.5196 8.29291 18.7071C8.48044 18.8946 8.73478 19 9 19V20C9 21.8565 9.73748 23.637 11.0502 24.9497C12.363 26.2625 14.1435 27 16 27C17.8565 27 19.637 26.2625 20.9498 24.9497C22.2625 23.637 23 21.8565 23 20V20ZM12 28.062V29C12 30.0609 12.4214 31.0783 13.1716 31.8284C13.9217 32.5786 14.9391 33 16 33C17.0609 33 18.0783 32.5786 18.8284 31.8284C19.5786 31.0783 20 30.0609 20 29V28.062C18.7568 28.6788 17.3878 28.9997 16 28.9997C14.6122 28.9997 13.2432 28.6788 12 28.062V28.062ZM2 37C2 37.2652 2.10537 37.5196 2.29291 37.7071C2.48044 37.8946 2.73478 38 3 38H29C29.2652 38 29.5196 37.8946 29.7071 37.7071C29.8946 37.5196 30 37.2652 30 37V35C29.998 34.7744 29.9186 34.5563 29.7752 34.3822C29.6318 34.208 29.433 34.0883 29.212 34.043V34.031L21.553 31.249C21.1065 32.357 20.339 33.3063 19.3489 33.9748C18.3589 34.6433 17.1916 35.0005 15.997 35.0005C14.8024 35.0005 13.6351 34.6433 12.645 33.9748C11.655 33.3063 10.8874 32.357 10.441 31.249L2.78198 34.031V34.043C2.56208 34.0895 2.36469 34.2097 2.22247 34.3838C2.08025 34.5578 2.00175 34.7752 2 35V37ZM20 19H19C18.7348 19 18.4804 18.8946 18.2929 18.7071C18.1054 18.5196 18 18.2652 18 18C18 17.7348 18.1054 17.4804 18.2929 17.2929C18.4804 17.1054 18.7348 17 19 17H20C20.2652 17 20.5196 17.1054 20.7071 17.2929C20.8946 17.4804 21 17.7348 21 18C21 18.2652 20.8946 18.5196 20.7071 18.7071C20.5196 18.8946 20.2652 19 20 19ZM18.284 21.307C18.3722 21.2013 18.4813 21.1149 18.6045 21.0533C18.7277 20.9917 18.8622 20.9562 18.9998 20.949C19.1373 20.9418 19.2748 20.9631 19.4037 21.0116C19.5326 21.06 19.6501 21.1346 19.7488 21.2306C19.8476 21.3265 19.9254 21.4419 19.9775 21.5694C20.0296 21.6969 20.0548 21.8337 20.0516 21.9714C20.0483 22.1091 20.0166 22.2446 19.9586 22.3694C19.9005 22.4943 19.8172 22.6058 19.714 22.697L19.724 22.707C18.6726 23.5799 17.339 24.0396 15.973 24C14.6312 24.0431 13.321 23.587 12.296 22.72L12.303 22.714C12.2048 22.6214 12.1265 22.5099 12.0728 22.3861C12.019 22.2624 11.991 22.129 11.9905 21.994C11.9899 21.8591 12.0168 21.7255 12.0695 21.6013C12.1222 21.4771 12.1996 21.3649 12.2971 21.2715C12.3945 21.1782 12.5099 21.1056 12.6362 21.0583C12.7626 21.0109 12.8973 20.9897 13.032 20.996C13.1668 21.0024 13.2989 21.036 13.4202 21.095C13.5416 21.1539 13.6497 21.237 13.738 21.339C14.3807 21.8385 15.1894 22.0748 16 22C16.4074 22.0403 16.8188 21.9996 17.2104 21.8803C17.602 21.761 17.9662 21.5655 18.282 21.305L18.284 21.307ZM13 19H12C11.7348 19 11.4804 18.8946 11.2929 18.7071C11.1054 18.5196 11 18.2652 11 18C11 17.7348 11.1054 17.4804 11.2929 17.2929C11.4804 17.1054 11.7348 17 12 17H13C13.2652 17 13.5196 17.1054 13.7071 17.2929C13.8946 17.4804 14 17.7348 14 18C14 18.2652 13.8946 18.5196 13.7071 18.7071C13.5196 18.8946 13.2652 19 13 19Z" fill="black"/>
<path opacity="0.1" fill-rule="evenodd" clip-rule="evenodd" d="M39 20V23L38 24H35L32 27H31C30.4696 27 29.9609 26.7893 29.5858 26.4142C29.2107 26.0391 29 25.5304 29 25V7C29 6.46957 29.2107 5.96086 29.5858 5.58578C29.9609 5.21071 30.4696 5 31 5H38C38.5304 5 39.0391 5.21071 39.4142 5.58578C39.7893 5.96086 40 6.46957 40 7V20H39ZM31 34V37L30 39H2L1 38L14 33L15 34L17 36H20L24 33L26 32L29 33L31 34ZM18 13L15 12L14 11L13 9V6H19L23 7L24 9V13H18Z" fill="black"/>
</svg>
