<svg width="40" height="40" viewBox="0 0 40 40" fill="none" xmlns="http://www.w3.org/2000/svg">
<g clip-path="url(#clip0_510_113)">
<path fill-rule="evenodd" clip-rule="evenodd" d="M37 36.0002H35.9C35.6705 37.1305 35.0573 38.1466 34.1642 38.8765C33.2712 39.6064 32.1534 40.0052 31 40.0052C29.8466 40.0052 28.7288 39.6064 27.8358 38.8765C26.9427 38.1466 26.3295 37.1305 26.1 36.0002H13.9C13.6705 37.1305 13.0573 38.1466 12.1642 38.8765C11.2712 39.6064 10.1534 40.0052 9 40.0052C7.84664 40.0052 6.72877 39.6064 5.83575 38.8765C4.94274 38.1466 4.32949 37.1305 4.09998 36.0002H3C2.20435 36.0002 1.44127 35.6841 0.878662 35.1215C0.316053 34.5589 0 33.7958 0 33.0002V20.0002C0 19.2045 0.316053 18.4415 0.878662 17.8788C1.44127 17.3162 2.20435 17.0002 3 17.0002H29.974C31.631 17.0002 32.858 18.3252 34.018 19.6092L40 25.9892V33.0002C40 33.7958 39.6839 34.5589 39.1213 35.1215C38.5587 35.6841 37.7956 36.0002 37 36.0002ZM31 38.0002C31.5933 38.0002 32.1733 37.8242 32.6667 37.4946C33.16 37.1649 33.5446 36.6964 33.7717 36.1482C33.9987 35.6 34.0581 34.9968 33.9424 34.4149C33.8266 33.8329 33.5409 33.2984 33.1213 32.8788C32.7018 32.4593 32.1672 32.1736 31.5853 32.0578C31.0033 31.9421 30.4001 32.0015 29.8519 32.2285C29.3038 32.4556 28.8353 32.8401 28.5056 33.3335C28.176 33.8268 28 34.4068 28 35.0002C28 35.7958 28.3161 36.5589 28.8787 37.1215C29.4413 37.6841 30.2044 38.0002 31 38.0002ZM9 38.0002C9.59334 38.0002 10.1733 37.8242 10.6667 37.4946C11.16 37.1649 11.5446 36.6964 11.7717 36.1482C11.9987 35.6 12.0581 34.9968 11.9424 34.4149C11.8266 33.8329 11.5409 33.2984 11.1213 32.8788C10.7018 32.4593 10.1672 32.1736 9.58527 32.0578C9.00332 31.9421 8.40011 32.0015 7.85193 32.2285C7.30375 32.4556 6.83526 32.8401 6.50562 33.3335C6.17597 33.8268 6 34.4068 6 35.0002C6 35.7958 6.31605 36.5589 6.87866 37.1215C7.44127 37.6841 8.20435 38.0002 9 38.0002ZM38 27.0002H29C28.4696 27.0002 27.9609 26.7895 27.5858 26.4144C27.2107 26.0393 27 25.5306 27 25.0002V22.0002C27 21.7349 27.1054 21.4806 27.2929 21.2931C27.4804 21.1055 27.7348 21.0002 28 21.0002C28.2652 21.0002 28.5196 21.1055 28.7071 21.2931C28.8946 21.4806 29 21.7349 29 22.0002V25.0002H36.51L31.864 20.1002C31.3365 19.4952 30.6059 19.104 29.81 19.0002H3C2.73478 19.0002 2.48044 19.1055 2.29291 19.2931C2.10537 19.4806 2 19.7349 2 20.0002V33.0002C2 33.2654 2.10537 33.5197 2.29291 33.7073C2.48044 33.8948 2.73478 34.0002 3 34.0002H4.09998C4.32949 32.8699 4.94274 31.8537 5.83575 31.1238C6.72877 30.3939 7.84664 29.9952 9 29.9952C10.1534 29.9952 11.2712 30.3939 12.1642 31.1238C13.0573 31.8537 13.6705 32.8699 13.9 34.0002H26.1C26.3295 32.8699 26.9427 31.8537 27.8358 31.1238C28.7288 30.3939 29.8466 29.9952 31 29.9952C32.1534 29.9952 33.2712 30.3939 34.1642 31.1238C35.0573 31.8537 35.6705 32.8699 35.9 34.0002H37C37.2652 34.0002 37.5196 33.8948 37.7071 33.7073C37.8946 33.5197 38 33.2654 38 33.0002V27.0002ZM21 28.0002H16C15.7348 28.0002 15.4804 27.8948 15.2929 27.7073C15.1054 27.5197 15 27.2654 15 27.0002C15 26.7349 15.1054 26.4806 15.2929 26.2931C15.4804 26.1055 15.7348 26.0002 16 26.0002H21C21.2652 26.0002 21.5196 26.1055 21.7071 26.2931C21.8946 26.4806 22 26.7349 22 27.0002C22 27.2654 21.8946 27.5197 21.7071 27.7073C21.5196 27.8948 21.2652 28.0002 21 28.0002ZM21 25.0002H9C8.73478 25.0002 8.48044 24.8948 8.29291 24.7073C8.10537 24.5197 8 24.2654 8 24.0002C8 23.7349 8.10537 23.4806 8.29291 23.2931C8.48044 23.1055 8.73478 23.0002 9 23.0002H21C21.2652 23.0002 21.5196 23.1055 21.7071 23.2931C21.8946 23.4806 22 23.7349 22 24.0002C22 24.2654 21.8946 24.5197 21.7071 24.7073C21.5196 24.8948 21.2652 25.0002 21 25.0002ZM10.076 9.59317C10.1851 9.35166 10.3857 9.16334 10.6335 9.06959C10.8814 8.97584 11.1564 8.98432 11.398 9.09317L14.848 10.6392C15.1897 10.3291 15.6119 10.1217 16.0661 10.0407C16.5203 9.95969 16.9882 10.0084 17.416 10.1812L20.288 7.26816C20.4785 7.09786 20.727 7.00695 20.9824 7.0141C21.2379 7.02125 21.4809 7.12592 21.6616 7.30661C21.8423 7.4873 21.9469 7.7303 21.954 7.98574C21.9612 8.24117 21.8703 8.48965 21.7 8.68016L18.825 11.6002C18.9392 11.8866 18.9985 12.1919 19 12.5002C19 13.1632 18.7366 13.7991 18.2678 14.2679C17.7989 14.7368 17.163 15.0002 16.5 15.0002C15.837 15.0002 15.2011 14.7368 14.7322 14.2679C14.2634 13.7991 14 13.1632 14 12.5002C14 12.4832 14 12.4672 14 12.4502L10.574 10.9152C10.3328 10.8057 10.145 10.605 10.0516 10.3571C9.95827 10.1093 9.96702 9.83455 10.076 9.59317V9.59317ZM16.5 13.0002C16.5989 13.0002 16.6955 12.9708 16.7778 12.9159C16.86 12.861 16.9241 12.7829 16.9619 12.6915C16.9998 12.6001 17.0097 12.4996 16.9904 12.4026C16.9711 12.3056 16.9235 12.2165 16.8536 12.1466C16.7837 12.0767 16.6945 12.0291 16.5975 12.0098C16.5005 11.9905 16.4 12.0004 16.3087 12.0382C16.2173 12.0761 16.1392 12.1402 16.0843 12.2224C16.0293 12.3046 16 12.4013 16 12.5002C16 12.6328 16.0527 12.7599 16.1464 12.8537C16.2402 12.9475 16.3674 13.0002 16.5 13.0002ZM26.688 15.0002C27.074 13.4524 27.1022 11.8371 26.7706 10.2768C26.439 8.71652 25.7563 7.25229 24.7742 5.99529C23.7922 4.73828 22.5367 3.72155 21.103 3.02227C19.6693 2.323 18.0951 1.95956 16.5 1.95956C14.9049 1.95956 13.3307 2.323 11.897 3.02227C10.4633 3.72155 9.20781 4.73828 8.22577 5.99529C7.24373 7.25229 6.56097 8.71652 6.22937 10.2768C5.89777 11.8371 5.92605 13.4524 6.31201 15.0002H4.25098C3.88233 13.1847 3.92183 11.31 4.36658 9.5117C4.81133 7.71338 5.65021 6.03639 6.82257 4.60205C7.99493 3.16771 9.47147 2.01187 11.1453 1.21816C12.8192 0.424444 14.6485 0.0126953 16.501 0.0126953C18.3535 0.0126953 20.1828 0.424444 21.8567 1.21816C23.5305 2.01187 25.0071 3.16771 26.1794 4.60205C27.3518 6.03639 28.1907 7.71338 28.6354 9.5117C29.0802 11.31 29.1196 13.1847 28.751 15.0002H26.69H26.688Z" fill="black"/>
<path opacity="0.1" fill-rule="evenodd" clip-rule="evenodd" d="M31 38.9998C30.2089 38.9998 29.4355 38.7652 28.7777 38.3257C28.1199 37.8862 27.6073 37.2615 27.3045 36.5306C27.0018 35.7997 26.9225 34.9954 27.0769 34.2195C27.2312 33.4435 27.6122 32.7308 28.1716 32.1714C28.731 31.612 29.4437 31.231 30.2197 31.0767C30.9956 30.9223 31.7999 31.0016 32.5308 31.3043C33.2617 31.6071 33.8863 32.1198 34.3259 32.7775C34.7654 33.4353 35 34.2087 35 34.9998C35 36.0607 34.5786 37.0781 33.8284 37.8283C33.0783 38.5784 32.0609 38.9998 31 38.9998ZM9.13001 14.9998C8.90248 13.6386 8.97425 12.2442 9.34034 10.9136C9.70643 9.58291 10.3581 8.348 11.2499 7.29475C12.1417 6.24151 13.2523 5.39521 14.5043 4.81475C15.7564 4.23429 17.1199 3.93359 18.5 3.93359C19.8801 3.93359 21.2436 4.23429 22.4957 4.81475C23.7478 5.39521 24.8583 6.24151 25.7501 7.29475C26.6419 8.348 27.2936 9.58291 27.6597 10.9136C28.0258 12.2442 28.0975 13.6386 27.87 14.9998H9.13001ZM13 34.9998C13 35.791 12.7654 36.5643 12.3259 37.2221C11.8863 37.8799 11.2617 38.3926 10.5308 38.6954C9.79986 38.9981 8.9956 39.0773 8.21967 38.923C7.44375 38.7686 6.73099 38.3877 6.17158 37.8283C5.61217 37.2689 5.23119 36.5561 5.07685 35.7802C4.92251 35.0043 5.00176 34.2 5.30451 33.4691C5.60726 32.7382 6.11992 32.1135 6.77772 31.674C7.43551 31.2344 8.20888 30.9998 9.00001 30.9998C10.0609 30.9998 11.0783 31.4213 11.8284 32.1714C12.5786 32.9215 13 33.939 13 34.9998Z" fill="black"/>
</g>
<defs>
<clipPath id="clip0_510_113">
<rect width="40" height="40" fill="white"/>
</clipPath>
</defs>
</svg>
