<svg width="40" height="40" viewBox="0 0 40 40" fill="none" xmlns="http://www.w3.org/2000/svg">
<g clip-path="url(#clip0_510_116)">
<path fill-rule="evenodd" clip-rule="evenodd" d="M24 10H28C28.2652 10 28.5196 10.1054 28.7072 10.2929C28.8947 10.4804 29 10.7348 29 11C29 11.2652 28.8947 11.5196 28.7072 11.7071C28.5196 11.8946 28.2652 12 28 12H24C23.7348 12 23.4804 11.8946 23.2929 11.7071C23.1053 11.5196 23 11.2652 23 11C23 10.7348 23.1053 10.4804 23.2929 10.2929C23.4804 10.1054 23.7348 10 24 10ZM24 14H28C28.2652 14 28.5196 14.1054 28.7072 14.2929C28.8947 14.4804 29 14.7348 29 15C29 15.2652 28.8947 15.5196 28.7072 15.7071C28.5196 15.8946 28.2652 16 28 16H24C23.7348 16 23.4804 15.8946 23.2929 15.7071C23.1053 15.5196 23 15.2652 23 15C23 14.7348 23.1053 14.4804 23.2929 14.2929C23.4804 14.1054 23.7348 14 24 14ZM24 22H28C28.2652 22 28.5196 22.1054 28.7072 22.2929C28.8947 22.4804 29 22.7348 29 23C29 23.2652 28.8947 23.5196 28.7072 23.7071C28.5196 23.8946 28.2652 24 28 24H24C23.7348 24 23.4804 23.8946 23.2929 23.7071C23.1053 23.5196 23 23.2652 23 23C23 22.7348 23.1053 22.4804 23.2929 22.2929C23.4804 22.1054 23.7348 22 24 22ZM24 18H28C28.2652 18 28.5196 18.1054 28.7072 18.2929C28.8947 18.4804 29 18.7348 29 19C29 19.2652 28.8947 19.5196 28.7072 19.7071C28.5196 19.8946 28.2652 20 28 20H24C23.7348 20 23.4804 19.8946 23.2929 19.7071C23.1053 19.5196 23 19.2652 23 19C23 18.7348 23.1053 18.4804 23.2929 18.2929C23.4804 18.1054 23.7348 18 24 18ZM39 11H35V36.5C35 37.4283 34.6313 38.3185 33.9749 38.9749C33.3185 39.6313 32.4283 40 31.5 40C31.3324 39.9956 31.1652 39.9789 31 39.95V40H4.00003V39.95C3.83481 39.9789 3.6677 39.9956 3.50003 40C2.57177 40 1.68155 39.6313 1.02517 38.9749C0.368796 38.3185 2.69644e-05 37.4283 2.69644e-05 36.5V32C2.69644e-05 31.7348 0.105337 31.4804 0.292874 31.2929C0.48041 31.1054 0.73481 31 1.00003 31C1.26524 31 1.51964 31.1054 1.70718 31.2929C1.89472 31.4804 2.00003 31.7348 2.00003 32V36.5C2.00003 36.8978 2.15805 37.2794 2.43936 37.5607C2.72066 37.842 3.1022 38 3.50003 38C3.67124 37.996 3.84045 37.9622 4.00003 37.9V38H28.35C28.1213 37.5329 28.0017 37.02 28 36.5V33H19C18.7348 33 18.4804 32.8946 18.2929 32.7071C18.1053 32.5196 18 32.2652 18 32C18 31.7348 18.1053 31.4804 18.2929 31.2929C18.4804 31.1054 18.7348 31 19 31H30V36.5C30 36.8978 30.1581 37.2794 30.4394 37.5607C30.7207 37.842 31.1022 38 31.5 38C31.8979 38 32.2794 37.842 32.5607 37.5607C32.842 37.2794 33 36.8978 33 36.5V3.5C33.0017 2.97996 33.1213 2.46707 33.35 2H10V2.1C9.84045 2.03783 9.67124 2.00399 9.50003 2C9.1022 2 8.72066 2.15803 8.43936 2.43934C8.15805 2.72064 8.00003 3.10218 8.00003 3.5V4C8.00003 4.26522 7.89472 4.51957 7.70718 4.70711C7.51964 4.89464 7.26524 5 7.00003 5C6.73481 5 6.48041 4.89464 6.29287 4.70711C6.10534 4.51957 6.00003 4.26522 6.00003 4V3.5C6.00003 2.57174 6.3688 1.6815 7.02517 1.02513C7.68155 0.36875 8.57177 0 9.50003 0C9.6677 0.00436549 9.83481 0.0210766 10 0.0499992V0H36V0.0499992C36.1652 0.0210766 36.3324 0.00436549 36.5 0C37.4283 0 38.3185 0.36875 38.9749 1.02513C39.6313 1.6815 40 2.57174 40 3.5V11H39ZM38 3.5C38 3.10218 37.842 2.72064 37.5607 2.43934C37.2794 2.15803 36.8979 2 36.5 2C36.1022 2 35.7207 2.15803 35.4394 2.43934C35.1581 2.72064 35 3.10218 35 3.5V8V9H38V3.5ZM20 17C19.999 18.5506 19.637 20.0796 18.9428 21.4661C18.2485 22.8525 17.241 24.0583 16 24.988V32C16.0022 32.1375 15.975 32.2739 15.9201 32.4C15.8155 32.643 15.619 32.8346 15.3734 32.933C15.1279 33.0314 14.8534 33.0285 14.61 32.925L10.01 31.073L5.39004 32.925C5.14665 33.0285 4.87213 33.0314 4.62661 32.933C4.3811 32.8346 4.18452 32.643 4.07998 32.4C4.02509 32.2739 3.99786 32.1375 4.00003 32V24.988C2.63597 23.965 1.55616 22.6101 0.863186 21.0522C0.170208 19.4943 -0.112959 17.7851 0.0406764 16.087C0.194312 14.3888 0.779661 12.7582 1.74099 11.3499C2.70233 9.94171 4.00771 8.80267 5.53323 8.04105C7.05875 7.27944 8.75377 6.92053 10.4571 6.99845C12.1604 7.07637 13.8154 7.58851 15.265 8.48623C16.7147 9.38394 17.9107 10.6374 18.7394 12.1275C19.5682 13.6177 20.0021 15.2949 20 17V17ZM6.00003 30.54L9.61001 29.094C9.73657 29.041 9.87286 29.0151 10.01 29.018C10.1505 29.0142 10.2903 29.0401 10.4201 29.094L14 30.536V26.162C12.7388 26.7145 11.3769 26.9997 10 26.9997C8.62315 26.9997 7.26121 26.7145 6.00003 26.162V30.54V30.54ZM2.00003 17C2.00003 18.5823 2.46924 20.129 3.34829 21.4446C4.22734 22.7602 5.47669 23.7855 6.9385 24.391C8.40031 24.9965 10.0088 25.155 11.5607 24.8463C13.1125 24.5376 14.5381 23.7757 15.6569 22.6569C16.7757 21.538 17.5377 20.1126 17.8463 18.5607C18.155 17.0089 17.9965 15.4003 17.391 13.9385C16.7855 12.4767 15.7602 11.2273 14.4446 10.3482C13.129 9.46919 11.5823 9 10 9C7.87829 9 5.84346 9.84286 4.34317 11.3431C2.84288 12.8434 2.00003 14.8783 2.00003 17ZM16 17C16 18.1867 15.6481 19.3467 14.9888 20.3334C14.3295 21.3201 13.3925 22.0891 12.2962 22.5433C11.1998 22.9974 9.99338 23.1162 8.82949 22.8847C7.66561 22.6532 6.59647 22.0818 5.75735 21.2426C4.91824 20.4035 4.34677 19.3344 4.11526 18.1705C3.88375 17.0067 4.00257 15.8003 4.45669 14.7039C4.91082 13.6075 5.67996 12.6705 6.66665 12.0112C7.65335 11.3519 8.81334 11 10 11C11.5913 11 13.1175 11.6321 14.2427 12.7574C15.3679 13.8826 16 15.4087 16 17ZM6.00003 17C6.00003 17.7911 6.23457 18.5645 6.6741 19.2223C7.11363 19.8801 7.73836 20.3928 8.46926 20.6955C9.20017 20.9983 10.0045 21.0775 10.7804 20.9231C11.5563 20.7688 12.269 20.3878 12.8284 19.8284C13.3878 19.269 13.7688 18.5563 13.9231 17.7804C14.0775 17.0044 13.9983 16.2002 13.6956 15.4693C13.3928 14.7384 12.8801 14.1136 12.2223 13.6741C11.5645 13.2346 10.7912 13 10 13C8.93916 13 7.9218 13.4214 7.17166 14.1716C6.42151 14.9217 6.00003 15.9391 6.00003 17Z" fill="black"/>
<path opacity="0.1" fill-rule="evenodd" clip-rule="evenodd" d="M31 39H29V32H26V5C26 4.20435 26.3161 3.44129 26.8787 2.87868C27.4413 2.31607 28.2044 2 29 2H34V36C34 36.7956 33.6839 37.5587 33.1213 38.1213C32.5587 38.6839 31.7956 39 31 39ZM11.5 22C10.8078 22 10.1311 21.7947 9.55554 21.4101C8.97997 21.0256 8.53139 20.4789 8.26648 19.8394C8.00157 19.1999 7.93221 18.4961 8.06726 17.8172C8.20231 17.1383 8.53566 16.5146 9.02515 16.0251C9.51463 15.5356 10.1382 15.2023 10.8171 15.0673C11.4961 14.9322 12.1998 15.0015 12.8394 15.2664C13.4789 15.5313 14.0256 15.9799 14.4102 16.5555C14.7947 17.1311 15 17.8078 15 18.5C15 19.4283 14.6312 20.3185 13.9749 20.9749C13.3185 21.6313 12.4283 22 11.5 22V22ZM26 37L27 38L2 39L1 38V35H26V37Z" fill="black"/>
</g>
<defs>
<clipPath id="clip0_510_116">
<rect width="40" height="40" fill="white"/>
</clipPath>
</defs>
</svg>
