<svg width="40" height="40" viewBox="0 0 40 40" fill="none" xmlns="http://www.w3.org/2000/svg">
<g clip-path="url(#clip0_510_119)">
<path fill-rule="evenodd" clip-rule="evenodd" d="M38 32V37C38 37.7957 37.6839 38.5587 37.1213 39.1213C36.5587 39.6839 35.7956 40 35 40H4C2.93913 40 1.92172 39.5786 1.17157 38.8284C0.421424 38.0783 0 37.0609 0 36V12H0.0499878C0.168091 11.1686 0.581916 10.4077 1.21558 9.85667C1.84924 9.30566 2.66028 9.00152 3.5 9H4.58701C4.87881 9.72009 5.27396 10.3938 5.76001 11H3.5C3.10218 11 2.72064 11.158 2.43933 11.4393C2.15803 11.7206 2 12.1022 2 12.5C2 12.8978 2.15803 13.2794 2.43933 13.5607C2.72064 13.842 3.10218 14 3.5 14H19.233C18.986 13.1786 18.9345 12.3109 19.0827 11.466C19.2308 10.6212 19.5745 9.82276 20.0863 9.13445C20.5981 8.44614 21.2637 7.88706 22.0301 7.50189C22.7965 7.11671 23.6423 6.91611 24.5 6.91611C25.3577 6.91611 26.2035 7.11671 26.9699 7.50189C27.7363 7.88706 28.4019 8.44614 28.9137 9.13445C29.4255 9.82276 29.7692 10.6212 29.9173 11.466C30.0655 12.3109 30.014 13.1786 29.767 14H34V12C34 11.7348 33.8946 11.4804 33.7071 11.2929C33.5196 11.1054 33.2652 11 33 11H31.849C31.7068 10.3024 31.465 9.62879 31.131 9H33C33.7956 9 34.5587 9.31607 35.1213 9.87868C35.6839 10.4413 36 11.2044 36 12V14.184C36.5836 14.389 37.0894 14.7698 37.4475 15.2741C37.8057 15.7785 37.9987 16.3814 38 17V22C38.5304 22 39.0391 22.2107 39.4142 22.5858C39.7893 22.9609 40 23.4696 40 24V30C40 30.5304 39.7893 31.0391 39.4142 31.4142C39.0391 31.7893 38.5304 32 38 32ZM28 12.5C28 11.5717 27.6313 10.6815 26.9749 10.0251C26.3185 9.36875 25.4283 9 24.5 9C23.5717 9 22.6815 9.36875 22.0251 10.0251C21.3687 10.6815 21 11.5717 21 12.5C21.0026 13.0199 21.1222 13.5326 21.35 14H27.65C27.8778 13.5326 27.9974 13.0199 28 12.5ZM36 17C36 16.7348 35.8946 16.4804 35.7071 16.2929C35.5196 16.1054 35.2652 16 35 16H2V36C2 36.5304 2.21071 37.0391 2.58578 37.4142C2.96086 37.7893 3.46957 38 4 38H35C35.2652 38 35.5196 37.8946 35.7071 37.7071C35.8946 37.5196 36 37.2652 36 37V32H27.5C26.3065 32 25.1619 31.5259 24.318 30.682C23.4741 29.8381 23 28.6935 23 27.5V26.5C23 25.3065 23.4741 24.1619 24.318 23.318C25.1619 22.4741 26.3065 22 27.5 22H36V17ZM38 24H27.5C26.837 24 26.2011 24.2634 25.7322 24.7322C25.2634 25.2011 25 25.837 25 26.5V27.5C25 28.163 25.2634 28.7989 25.7322 29.2678C26.2011 29.7366 26.837 30 27.5 30H38V24ZM26.328 27C26.328 26.6693 26.4261 26.346 26.6098 26.0711C26.7935 25.7961 27.0547 25.5818 27.3602 25.4553C27.6657 25.3287 28.0019 25.2956 28.3262 25.3601C28.6505 25.4246 28.9484 25.5839 29.1823 25.8177C29.4161 26.0516 29.5753 26.3495 29.6399 26.6738C29.7044 26.9981 29.6713 27.3343 29.5447 27.6399C29.4182 27.9454 29.2039 28.2065 28.9289 28.3902C28.654 28.5739 28.3307 28.672 28 28.672C27.5566 28.672 27.1313 28.4958 26.8177 28.1823C26.5042 27.8687 26.328 27.4434 26.328 27V27ZM6 35C5.73478 35 5.48044 34.8946 5.29291 34.7071C5.10537 34.5196 5 34.2652 5 34V20C5 19.7348 5.10537 19.4804 5.29291 19.2929C5.48044 19.1054 5.73478 19 6 19C6.26522 19 6.51956 19.1054 6.70709 19.2929C6.89463 19.4804 7 19.7348 7 20V34C7 34.2652 6.89463 34.5196 6.70709 34.7071C6.51956 34.8946 6.26522 35 6 35ZM12 12C10.8133 12 9.65326 11.6481 8.66656 10.9888C7.67987 10.3295 6.91085 9.39246 6.45673 8.2961C6.0026 7.19974 5.88378 5.99335 6.1153 4.82946C6.34681 3.66558 6.91824 2.59648 7.75735 1.75736C8.59647 0.918247 9.66558 0.346802 10.8295 0.115291C11.9934 -0.11622 13.1998 0.00259972 14.2961 0.456726C15.3925 0.910851 16.3295 1.67989 16.9888 2.66658C17.6481 3.65328 18 4.81332 18 6C18 7.5913 17.3679 9.11742 16.2426 10.2426C15.1174 11.3679 13.5913 12 12 12ZM12 2C11.2089 2 10.4355 2.2346 9.77771 2.67413C9.11991 3.11365 8.60722 3.73837 8.30447 4.46927C8.00172 5.20018 7.92253 6.00444 8.07687 6.78037C8.23121 7.55629 8.61216 8.26902 9.17157 8.82843C9.73098 9.38784 10.4437 9.7688 11.2196 9.92314C11.9956 10.0775 12.7998 9.99827 13.5307 9.69552C14.2616 9.39277 14.8863 8.88008 15.3259 8.22229C15.7654 7.56449 16 6.79113 16 6C16 4.93914 15.5786 3.92172 14.8284 3.17158C14.0783 2.42143 13.0609 2 12 2Z" fill="black"/>
<path opacity="0.1" fill-rule="evenodd" clip-rule="evenodd" d="M28 23C26.9391 23 25.9217 23.4214 25.1716 24.1716C24.4214 24.9217 24 25.9391 24 27C24 28.0609 24.4214 29.0783 25.1716 29.8284C25.9217 30.5786 26.9391 31 28 31H37V39H12V21C12 20.4696 12.2107 19.9609 12.5858 19.5858C12.9609 19.2107 13.4696 19 14 19H37V23H28ZM20.76 15C20.3067 14.3225 20.0459 13.5346 20.0055 12.7205C19.9651 11.9064 20.1466 11.0965 20.5307 10.3775C20.9147 9.6585 21.4868 9.0573 22.1859 8.63812C22.885 8.21894 23.6849 7.99752 24.5 7.99752C25.3151 7.99752 26.115 8.21894 26.8141 8.63812C27.5132 9.0573 28.0853 9.6585 28.4693 10.3775C28.8534 11.0965 29.0349 11.9064 28.9945 12.7205C28.9541 13.5346 28.6933 14.3225 28.24 15H20.76ZM12 11C11.0111 11 10.0444 10.7068 9.22214 10.1574C8.39989 9.60794 7.75906 8.82705 7.38062 7.91342C7.00218 6.99979 6.90315 5.99446 7.09607 5.02455C7.289 4.05465 7.76522 3.16373 8.46448 2.46447C9.16374 1.76521 10.0546 1.289 11.0245 1.09608C11.9944 0.903149 12.9998 1.00217 13.9134 1.38061C14.8271 1.75904 15.6079 2.39991 16.1574 3.22215C16.7068 4.0444 17 5.0111 17 6C17 7.32608 16.4732 8.59786 15.5355 9.53554C14.5978 10.4732 13.3261 11 12 11V11Z" fill="black"/>
</g>
<defs>
<clipPath id="clip0_510_119">
<rect width="40" height="40" fill="white"/>
</clipPath>
</defs>
</svg>
